<svg width="103" height="55" viewBox="0 0 103 55" fill="none" xmlns="http://www.w3.org/2000/svg">
<path d="M84.6858 15.7491C77.806 26.4139 68.3013 36.4832 56.3699 41.362C52.7453 42.8507 47.7476 44.0579 44.241 41.6219C39.7487 38.4115 41.0731 28.3244 47.1129 27.6171C50.3911 27.2592 52.3643 30.7543 51.4379 33.5975C50.9789 35.2775 49.7848 36.6351 48.4049 37.7829C36.8329 47.8861 19.394 52.5512 4.93412 46.0378" stroke="white" stroke-width="2.7411" stroke-miterlimit="10" stroke-linecap="round" stroke-linejoin="round"/>
<path d="M74.8872 11.6214C78.7386 10.9804 91.9189 2.52326 95.6816 2.03577C95.0128 3.90169 94.6186 5.82391 94.1033 7.77853C93.5318 10.0078 93.3559 12.2609 93.3011 14.4816" stroke="white" stroke-width="2.7411" stroke-miterlimit="10" stroke-linecap="round" stroke-linejoin="round"/>
</svg>
