<?xml version="1.0" standalone="no"?>
<!DOCTYPE svg PUBLIC "-//W3C//DTD SVG 20010904//EN"
 "http://www.w3.org/TR/2001/REC-SVG-20010904/DTD/svg10.dtd">
<svg version="1.0" xmlns="http://www.w3.org/2000/svg"
 width="2000.000000pt" height="356.000000pt" viewBox="0 0 2000.000000 356.000000"
 preserveAspectRatio="xMidYMid meet">

<g transform="translate(0.000000,356.000000) scale(0.100000,-0.100000)"
fill="#000000" stroke="none">
<path d="M18717 3518 c9 -24 74 -180 143 -348 l125 -305 210 -46 c116 -26 339
-75 497 -109 159 -35 286 -65 284 -67 -1 -2 -225 -52 -497 -111 l-494 -109
-141 -344 c-78 -189 -141 -345 -140 -346 5 -5 800 107 806 114 11 13 480 792
480 797 0 4 -477 795 -484 803 -1 1 -173 25 -381 53 -209 28 -390 53 -402 55
l-23 5 17 -42z"/>
<path d="M4990 2600 c-91 -15 -198 -33 -237 -40 l-73 -12 0 -1249 0 -1249 245
0 245 0 0 380 c0 211 4 380 9 380 5 0 52 -45 104 -100 114 -118 272 -327 394
-520 l88 -140 284 0 c258 0 283 1 277 16 -12 30 -118 208 -189 314 -131 198
-354 475 -481 599 l-55 55 172 176 c162 165 518 559 525 580 2 6 -101 10 -285
10 l-289 0 -99 -117 c-120 -142 -403 -460 -433 -487 l-22 -19 0 726 c0 400 -3
727 -7 726 -5 -1 -82 -13 -173 -29z"/>
<path d="M13630 2370 c-109 -10 -322 -37 -352 -46 -17 -5 -18 -67 -18 -1119 0
-1052 1 -1114 18 -1119 33 -10 198 -35 307 -47 61 -7 234 -13 385 -13 384 -1
543 25 745 124 234 113 350 293 362 559 13 264 -83 447 -284 546 -45 22 -82
42 -82 45 0 3 25 23 56 45 144 103 214 262 198 449 -26 308 -234 494 -625 562
-112 19 -546 27 -710 14z m614 -425 c97 -21 165 -62 193 -116 50 -97 36 -213
-33 -282 -72 -72 -195 -97 -471 -97 l-163 0 0 249 c0 190 3 251 13 254 30 13
394 6 461 -8z m57 -910 c175 -36 252 -120 252 -276 1 -172 -97 -262 -324 -298
-69 -12 -361 -15 -421 -5 l-38 7 -2 256 -3 256 -170 36 -170 37 285 4 c349 6
505 1 591 -17z"/>
<path d="M176 2298 c-66 -527 -112 -1093 -155 -1903 -6 -104 -13 -225 -16
-267 l-5 -78 253 0 253 0 12 353 c16 459 56 1153 67 1165 1 1 118 -269 260
-600 141 -332 262 -609 268 -616 7 -9 53 -12 186 -10 l175 3 261 608 c143 334
263 607 266 607 3 0 9 -44 12 -97 30 -463 38 -628 52 -968 8 -214 15 -402 15
-417 l0 -28 250 0 250 0 0 58 c0 138 -70 1222 -100 1557 -22 239 -68 639 -76
668 -5 16 -23 17 -242 15 l-237 -3 -95 -190 c-117 -234 -228 -479 -395 -868
-70 -164 -130 -296 -132 -293 -3 3 -71 159 -152 348 -157 365 -340 765 -420
913 l-48 90 -250 3 -250 2 -7 -52z"/>
<path d="M8170 2345 c0 -49 207 -937 305 -1310 99 -373 259 -915 287 -967 8
-16 30 -18 242 -18 l234 0 50 143 c72 207 145 435 267 842 60 198 111 364 115
368 4 4 46 -122 95 -280 148 -483 191 -619 272 -851 l77 -222 236 0 237 0 46
142 c130 404 257 865 378 1373 72 305 169 745 169 773 0 9 -60 12 -265 12
-204 0 -267 -3 -269 -12 -2 -7 -30 -157 -61 -333 -90 -510 -201 -1047 -253
-1230 -8 -27 -15 -13 -65 141 -55 172 -214 702 -305 1019 l-49 170 -221 3
c-122 1 -222 0 -222 -2 0 -3 -34 -130 -75 -283 -118 -433 -292 -1003 -325
-1062 -8 -15 -73 239 -134 524 -60 277 -206 1032 -206 1061 0 2 -126 4 -280 4
-154 0 -280 -2 -280 -5z"/>
<path d="M17400 2271 l-215 -36 -3 -705 c-4 -926 6 -1057 89 -1221 40 -79 134
-174 216 -217 109 -57 205 -76 393 -76 100 0 189 5 225 13 77 17 217 61 229
71 7 7 -50 365 -60 378 -1 2 -41 -6 -88 -17 -114 -28 -245 -37 -321 -21 -48
10 -68 20 -101 54 -74 73 -77 96 -82 524 l-3 372 295 0 296 0 0 205 0 205
-295 0 -295 0 0 255 0 255 -32 -1 c-18 -1 -130 -18 -248 -38z"/>
<path d="M16035 1843 c-22 -2 -71 -11 -110 -20 -273 -64 -473 -241 -581 -514
-50 -127 -59 -190 -59 -394 0 -224 18 -312 90 -460 117 -241 339 -393 634
-436 134 -19 418 -6 568 25 148 31 233 62 233 83 0 20 -60 376 -64 381 -2 1
-41 -8 -87 -21 -134 -39 -224 -51 -379 -51 -204 -1 -310 34 -401 131 -54 58
-68 81 -85 145 l-12 48 558 0 c420 0 561 3 566 12 13 21 6 339 -10 423 -35
193 -96 317 -216 436 -128 128 -255 185 -460 209 -84 10 -106 10 -185 3z m164
-414 c130 -28 207 -123 236 -291 l6 -38 -326 0 c-367 0 -336 -8 -311 85 50
188 206 285 395 244z"/>
<path d="M3265 1820 c-150 -23 -263 -49 -271 -61 -6 -10 46 -363 57 -380 4 -7
33 -4 85 10 161 40 402 54 514 30 119 -26 191 -113 198 -242 4 -69 4 -70 -19
-63 -72 19 -273 29 -382 17 -336 -34 -529 -154 -599 -374 -29 -90 -28 -265 2
-362 91 -289 372 -405 910 -374 148 8 374 38 518 69 l52 12 0 536 c0 295 -5
578 -10 627 -34 302 -173 472 -447 547 -113 31 -437 35 -608 8z m518 -1025
l67 -7 0 -188 0 -189 -45 -7 c-25 -3 -109 -5 -187 -3 -135 4 -146 6 -203 34
-73 37 -96 76 -96 163 -1 125 73 186 246 202 69 7 83 7 218 -5z"/>
<path d="M7065 1824 c-328 -79 -555 -319 -631 -669 -24 -108 -29 -302 -11
-420 47 -302 186 -503 432 -625 164 -82 230 -95 490 -95 168 0 242 5 315 18
129 24 271 68 277 85 6 15 -47 366 -57 383 -4 6 -38 1 -92 -15 -141 -41 -205
-49 -368 -50 -163 -1 -223 10 -313 56 -89 45 -166 143 -182 231 l-7 37 560 0
560 0 7 87 c14 168 -10 370 -61 518 -83 237 -281 407 -536 459 -96 20 -300 20
-383 0z m320 -413 c55 -25 101 -65 131 -117 26 -45 54 -132 54 -171 l0 -23
-325 0 c-271 0 -325 2 -325 14 0 32 41 144 69 187 43 68 118 115 211 133 43 8
143 -5 185 -23z"/>
<path d="M11955 1821 c-324 -85 -539 -313 -618 -655 -17 -74 -21 -123 -20
-261 0 -151 3 -181 26 -270 15 -55 48 -143 73 -195 40 -81 60 -109 138 -185
78 -78 106 -98 196 -143 167 -83 234 -97 490 -97 240 0 354 15 518 67 75 24
92 32 88 46 -2 9 -17 94 -32 189 -15 95 -30 177 -34 183 -5 8 -26 5 -71 -9
-131 -41 -228 -55 -389 -56 -122 0 -168 4 -215 18 -88 27 -151 65 -200 120
-40 44 -85 136 -85 172 0 13 75 15 559 15 l560 0 7 57 c10 83 -2 315 -21 408
-68 327 -270 536 -577 599 -108 22 -302 20 -393 -3z m342 -417 c94 -45 153
-134 169 -256 l7 -48 -328 0 -327 0 6 28 c21 88 39 133 73 181 85 121 260 162
400 95z"/>
</g>
</svg>
