<svg width="267" height="246" viewBox="0 0 267 246" fill="none" xmlns="http://www.w3.org/2000/svg">
<g opacity="0.3">
<path opacity="0.3" d="M14.9377 59.4315L17.1461 64.5777C19.5494 63.5464 22.288 63.6718 24.6047 64.9824C28.6425 67.2667 30.064 72.3918 27.7797 76.4296C25.4954 80.4675 20.3703 81.889 16.3325 79.6047C14.264 78.4345 12.8293 76.4917 12.293 74.2224L6.84312 75.5105C7.70891 79.1736 10.0406 82.4792 13.5751 84.4787C20.3048 88.2859 28.8466 85.9167 32.6538 79.187C36.461 72.4573 34.0918 63.9155 27.3621 60.1083C23.4035 57.8688 18.8179 57.7664 14.9377 59.4315Z" fill="#513BD0"/>
<path fill-rule="evenodd" clip-rule="evenodd" d="M-1.04719 76.2066C-7.7769 72.3994 -10.1461 63.8576 -6.33891 57.1278C-2.53173 50.3981 6.01011 48.029 12.7398 51.8361C19.4695 55.6433 21.8387 64.1851 18.0315 70.9149C14.2244 77.6446 5.68253 80.0137 -1.04719 76.2066Z" fill="#513BD0"/>
</g>
<g opacity="0.3">
<rect opacity="0.3" x="6.02441" y="195.115" width="46.6667" height="11.6667" rx="1" transform="rotate(40.7979 6.02441 195.115)" fill="#513BD0"/>
<path fill-rule="evenodd" clip-rule="evenodd" d="M6.74982 204.988L-13.2876 228.203C-14.0093 229.039 -13.9165 230.302 -13.0803 231.024L-9.29521 234.291L12.0489 209.561L6.74982 204.988ZM17.3481 214.135L-3.99608 238.864L8.6209 249.754C9.45708 250.476 10.72 250.383 11.4417 249.547L31.4791 226.332L25.423 221.105L23.4042 219.362L17.3481 214.135Z" fill="#513BD0"/>
</g>
<g opacity="0.3">
<rect opacity="0.3" x="84.8889" y="103.373" width="46.6667" height="32.6667" rx="2" transform="rotate(34.2145 84.8889 103.373)" fill="#513BD0"/>
<rect x="80.9529" y="109.162" width="46.6667" height="7" transform="rotate(34.2145 80.9529 109.162)" fill="#513BD0"/>
<rect opacity="0.3" x="100.094" y="139.107" width="9.33334" height="4.66666" rx="1" transform="rotate(34.2145 100.094 139.107)" fill="#513BD0"/>
</g>
<g opacity="0.3">
<path opacity="0.3" fill-rule="evenodd" clip-rule="evenodd" d="M234.553 57.8451C235.725 59.3825 237.921 59.6789 239.458 58.5072C240.996 57.3355 241.292 55.1393 240.12 53.6019C238.949 52.0645 236.752 51.7681 235.215 52.9398C233.678 54.1116 233.381 56.3077 234.553 57.8451Z" fill="#513BD0"/>
<rect opacity="0.3" x="224.823" y="12.1619" width="42" height="16.3333" rx="1" transform="rotate(37.687 224.823 12.1619)" fill="#513BD0"/>
<path fill-rule="evenodd" clip-rule="evenodd" d="M228.157 10.9598C227.487 10.0813 226.232 9.91192 225.354 10.5815L198.843 30.7871C197.964 31.4567 197.795 32.7116 198.464 33.5901L224.327 67.5245C224.997 68.403 226.252 68.5723 227.13 67.9028L233.588 62.9812C232.544 62.4429 231.601 61.6701 230.841 60.6739C228.107 57.0866 228.799 51.9623 232.386 49.2282C235.973 46.4942 241.098 47.1859 243.832 50.7731C244.591 51.7693 245.086 52.884 245.328 54.0332L253.642 47.6971C254.52 47.0276 254.69 45.7726 254.02 44.8941L228.157 10.9598Z" fill="#513BD0"/>
</g>
<g opacity="0.3">
<rect opacity="0.3" x="240.617" y="153.016" width="4.66667" height="9.33333" rx="1" transform="rotate(38.514 240.617 153.016)" fill="#513BD0"/>
<rect opacity="0.3" x="220.275" y="178.576" width="4.66667" height="11.6667" rx="1" transform="rotate(38.514 220.275 178.576)" fill="#513BD0"/>
<path fill-rule="evenodd" clip-rule="evenodd" d="M239.125 169.853C239.132 168.8 238.876 167.757 238.359 166.722C237.842 165.687 237.202 164.866 236.438 164.258C236.045 163.945 235.619 163.663 235.159 163.41C234.699 163.157 234.229 163 233.749 162.939C233.269 162.878 232.794 162.916 232.326 163.054C231.858 163.191 231.431 163.502 231.044 163.988C230.713 164.404 230.524 164.82 230.476 165.236C230.429 165.651 230.49 166.097 230.66 166.572C230.829 167.047 231.076 167.555 231.401 168.096C231.725 168.638 232.103 169.231 232.534 169.876C233.146 170.816 233.769 171.813 234.404 172.866C235.039 173.919 235.506 175.018 235.804 176.162C236.102 177.306 236.168 178.481 236 179.689C235.832 180.896 235.261 182.113 234.285 183.339C233.163 184.749 231.932 185.762 230.592 186.377C229.253 186.992 227.877 187.285 226.465 187.257C225.052 187.228 223.65 186.924 222.259 186.346C220.869 185.768 219.572 185.001 218.369 184.044C216.612 182.645 215.156 180.986 214.002 179.066C212.848 177.147 212.178 175.188 211.993 173.19L219.025 172.327C219.037 173.546 219.337 174.795 219.924 176.074C220.511 177.353 221.291 178.38 222.262 179.153C222.701 179.502 223.166 179.797 223.656 180.035C224.146 180.274 224.63 180.414 225.107 180.454C225.585 180.494 226.055 180.415 226.516 180.215C226.977 180.015 227.401 179.673 227.787 179.187C228.155 178.724 228.353 178.239 228.379 177.732C228.405 177.224 228.31 176.667 228.094 176.06C227.878 175.454 227.539 174.788 227.078 174.062C226.617 173.336 226.083 172.524 225.476 171.625C224.892 170.745 224.363 169.833 223.887 168.887C223.412 167.942 223.095 166.964 222.938 165.951C222.781 164.938 222.831 163.902 223.089 162.842C223.347 161.782 223.918 160.697 224.802 159.587C225.888 158.222 227.094 157.275 228.422 156.746C229.75 156.216 231.114 155.998 232.513 156.091C233.912 156.185 235.293 156.538 236.656 157.15C238.019 157.763 239.279 158.53 240.435 159.45C241.823 160.554 243.037 161.936 244.077 163.595C245.118 165.254 245.786 167.013 246.081 168.873L239.125 169.853Z" fill="#513BD0"/>
</g>
</svg>
